{
  "accessors": [
    {
      "bufferView": 2,
      "componentType": 5126,
      "count": 30422,
      "max": [
        142.91566467285156,
        147.55268859863281,
        83.685920715332031
      ],
      "min": [
        52.968696594238281,
        28.86982536315918,
        24.393316268920898
      ],
      "type": "VEC3"
    },
    {
      "bufferView": 2,
      "byteOffset": 365064,
      "componentType": 5126,
      "count": 30422,
      "max": [
        0.99994426965713501,
        0.99997657537460327,
        0.99981784820556641
      ],
      "min": [
        -0.99977827072143555,
        -0.99970513582229614,
        -0.99997603893280029
      ],
      "type": "VEC3"
    },
    {
      "bufferView": 3,
      "componentType": 5126,
      "count": 30422,
      "max": [
        0.99999755620956421,
        0.9999697208404541,
        0.99992465972900391,
        1
      ],
      "min": [
        -0.99999046325683594,
        -0.9999692440032959,
        -0.99997466802597046,
        1
      ],
      "type": "VEC4"
    },
    {
      "bufferView": 1,
      "componentType": 5126,
      "count": 30422,
      "max": [
        0.99560546875,
        0.99462890625
      ],
      "min": [
        0.00439453125,
        0.00439453125
      ],
      "type": "VEC2"
    },
    {
      "bufferView": 0,
      "componentType": 5125,
      "count": 123912,
      "max": [
        30421
      ],
      "min": [
        0
      ],
      "type": "SCALAR"
    }
  ],
  "asset": {
    "generator": "Sketchfab (OSG glTF plugin)",
    "version": "2.0"
  },
  "bufferViews": [
    {
      "buffer": 0,
      "byteLength": 495648,
      "byteOffset": 0,
      "name": "floatBufferViews",
      "target": 34963
    },
    {
      "buffer": 0,
      "byteLength": 243376,
      "byteOffset": 495648,
      "byteStride": 8,
      "name": "floatBufferViews",
      "target": 34962
    },
    {
      "buffer": 0,
      "byteLength": 730128,
      "byteOffset": 739024,
      "byteStride": 12,
      "name": "floatBufferViews",
      "target": 34962
    },
    {
      "buffer": 0,
      "byteLength": 486752,
      "byteOffset": 1469152,
      "byteStride": 16,
      "name": "floatBufferViews",
      "target": 34962
    }
  ],
  "buffers": [
    {
      "byteLength": 1955904,
      "uri": "scene.bin"
    }
  ],
  "images": [
    {
      "uri": "textures/Andrew_Face1_baseColor.jpeg"
    }
  ],
  "materials": [
    {
      "doubleSided": true,
      "emissiveFactor": [
        0,
        0,
        0
      ],
      "name": "Andrew_Face1",
      "pbrMetallicRoughness": {
        "baseColorFactor": [
          1,
          1,
          1,
          1
        ],
        "baseColorTexture": {
          "index": 0,
          "texCoord": 0
        },
        "metallicFactor": 0,
        "roughnessFactor": 1
      }
    }
  ],
  "meshes": [
    {
      "name": "Andrew_Face:Mesh-retopo 1_Andrew_Face1_0",
      "primitives": [
        {
          "attributes": {
            "NORMAL": 1,
            "POSITION": 0,
            "TANGENT": 2,
            "TEXCOORD_0": 3
          },
          "indices": 4,
          "material": 0,
          "mode": 4
        }
      ]
    }
  ],
  "nodes": [
    {
      "children": [
        1
      ],
      "name": "RootNode (gltf orientation matrix)",
      "rotation": [
        -0.70710678118654746,
        -0,
        -0,
        0.70710678118654757
      ]
    },
    {
      "children": [
        2
      ],
      "name": "RootNode (model correction matrix)"
    },
    {
      "children": [
        3
      ],
      "matrix": [
        1,
        0,
        0,
        0,
        0,
        0,
        1,
        0,
        0,
        -1,
        0,
        0,
        0,
        0,
        0,
        1
      ],
      "name": "677f61d0979b4e668051dcdf6cc824da.fbx"
    },
    {
      "children": [
        4
      ],
      "name": "RootNode"
    },
    {
      "children": [
        5
      ],
      "matrix": [
        -0.99999999999996447,
        2.6631610839967073e-07,
        0,
        0,
        -2.6631610839967073e-07,
        -0.99999999999996447,
        0,
        0,
        0,
        0,
        1,
        0,
        -139.48658752441406,
        0,
        0,
        1
      ],
      "name": "Andrew_Face:Mesh-retopo 1"
    },
    {
      "children": [
        6
      ],
      "name": "Geode"
    },
    {
      "mesh": 0,
      "name": "Andrew_Face:Mesh-retopo 1_Andrew_Face1_0"
    }
  ],
  "samplers": [
    {
      "magFilter": 9729,
      "minFilter": 9987,
      "wrapS": 10497,
      "wrapT": 10497
    }
  ],
  "scene": 0,
  "scenes": [
    {
      "name": "OSG_Scene",
      "nodes": [
        0
      ]
    }
  ],
  "textures": [
    {
      "sampler": 0,
      "source": 0
    }
  ]
}

